<svg width="145" height="35" viewBox="0 0 145 35" fill="none" xmlns="http://www.w3.org/2000/svg">
<path d="M48.296 26.234C46.4933 26.234 44.916 25.8527 43.564 25.09C42.2293 24.31 41.198 23.2093 40.47 21.788C39.7593 20.3667 39.404 18.7113 39.404 16.822C39.404 14.9327 39.7593 13.286 40.47 11.882C41.198 10.4607 42.2293 9.36867 43.564 8.606C44.916 7.826 46.4933 7.436 48.296 7.436C49.5267 7.436 50.688 7.62667 51.78 8.008C52.872 8.38933 53.7907 8.92667 54.536 9.62L53.418 12.064C52.586 11.4053 51.7627 10.9287 50.948 10.634C50.1333 10.322 49.2667 10.166 48.348 10.166C46.58 10.166 45.2107 10.738 44.24 11.882C43.2867 13.026 42.81 14.6727 42.81 16.822C42.81 18.9887 43.2867 20.644 44.24 21.788C45.2107 22.932 46.58 23.504 48.348 23.504C49.2667 23.504 50.1333 23.3567 50.948 23.062C51.7627 22.75 52.586 22.2647 53.418 21.606L54.536 24.05C53.7907 24.7433 52.872 25.2807 51.78 25.662C50.688 26.0433 49.5267 26.234 48.296 26.234ZM62.8552 26.208C61.5552 26.208 60.4112 25.9393 59.4232 25.402C58.4525 24.8647 57.6985 24.0933 57.1612 23.088C56.6239 22.0827 56.3552 20.9127 56.3552 19.578C56.3552 18.2433 56.6239 17.082 57.1612 16.094C57.6985 15.0887 58.4525 14.3173 59.4232 13.78C60.4112 13.2427 61.5552 12.974 62.8552 12.974C64.1552 12.974 65.2905 13.2427 66.2612 13.78C67.2492 14.3173 68.0032 15.0887 68.5232 16.094C69.0605 17.082 69.3292 18.2433 69.3292 19.578C69.3292 20.9127 69.0605 22.0827 68.5232 23.088C68.0032 24.0933 67.2492 24.8647 66.2612 25.402C65.2905 25.9393 64.1552 26.208 62.8552 26.208ZM62.8292 23.686C63.8865 23.686 64.6925 23.3393 65.2472 22.646C65.8019 21.9527 66.0792 20.93 66.0792 19.578C66.0792 18.2433 65.8019 17.2293 65.2472 16.536C64.6925 15.8253 63.8952 15.47 62.8552 15.47C61.8152 15.47 61.0092 15.8253 60.4372 16.536C59.8825 17.2293 59.6052 18.2433 59.6052 19.578C59.6052 20.93 59.8825 21.9527 60.4372 22.646C60.9919 23.3393 61.7892 23.686 62.8292 23.686ZM83.6863 13.286V26H80.5143V24.05C80.1156 24.7433 79.5783 25.2807 78.9023 25.662C78.2263 26.026 77.4636 26.208 76.6143 26.208C73.4943 26.208 71.9343 24.4573 71.9343 20.956V13.286H75.1843V20.982C75.1843 21.8833 75.3663 22.5507 75.7303 22.984C76.0943 23.4173 76.6663 23.634 77.4463 23.634C78.3476 23.634 79.0669 23.3393 79.6043 22.75C80.1589 22.1433 80.4363 21.346 80.4363 20.358V13.286H83.6863ZM95.4409 15.678L93.5429 15.86C91.3936 16.0853 90.3189 17.1773 90.3189 19.136V26H87.0689V13.286H90.1629V15.522C90.8216 13.9967 92.1822 13.1647 94.2449 13.026L95.2329 12.948L95.4409 15.678ZM101.575 26.208C100.448 26.208 99.4084 26.0693 98.4551 25.792C97.5191 25.5147 96.7217 25.116 96.0631 24.596L96.9731 22.334C98.3251 23.322 99.8764 23.816 101.627 23.816C102.372 23.816 102.936 23.6947 103.317 23.452C103.716 23.2093 103.915 22.8627 103.915 22.412C103.915 22.0307 103.776 21.736 103.499 21.528C103.239 21.32 102.762 21.1293 102.069 20.956L99.9891 20.488C98.8104 20.228 97.9351 19.8033 97.3631 19.214C96.7911 18.6247 96.5051 17.862 96.5051 16.926C96.5051 16.146 96.7217 15.4613 97.1551 14.872C97.6057 14.2653 98.2211 13.7973 99.0011 13.468C99.7984 13.1387 100.717 12.974 101.757 12.974C102.658 12.974 103.525 13.1127 104.357 13.39C105.206 13.6673 105.952 14.0573 106.593 14.56L105.683 16.77C104.366 15.8167 103.048 15.34 101.731 15.34C101.02 15.34 100.466 15.47 100.067 15.73C99.6684 15.99 99.4691 16.354 99.4691 16.822C99.4691 17.1687 99.5904 17.4547 99.8331 17.68C100.093 17.9053 100.5 18.0787 101.055 18.2L103.213 18.694C104.478 18.9713 105.406 19.4133 105.995 20.02C106.584 20.6093 106.879 21.3893 106.879 22.36C106.879 23.5387 106.402 24.4747 105.449 25.168C104.496 25.8613 103.204 26.208 101.575 26.208ZM120.668 20.228H112.01C112.114 21.4067 112.47 22.282 113.076 22.854C113.683 23.426 114.55 23.712 115.676 23.712C117.08 23.712 118.363 23.2613 119.524 22.36L120.46 24.596C119.871 25.0813 119.126 25.4713 118.224 25.766C117.34 26.0607 116.448 26.208 115.546 26.208C113.466 26.208 111.82 25.6187 110.606 24.44C109.41 23.2613 108.812 21.6493 108.812 19.604C108.812 18.304 109.072 17.1513 109.592 16.146C110.112 15.1407 110.84 14.3607 111.776 13.806C112.73 13.2513 113.804 12.974 115 12.974C116.751 12.974 118.129 13.5373 119.134 14.664C120.157 15.7907 120.668 17.342 120.668 19.318V20.228ZM115.078 15.262C114.212 15.262 113.51 15.5393 112.972 16.094C112.452 16.6487 112.132 17.446 112.01 18.486H117.886C117.852 17.4287 117.592 16.6313 117.106 16.094C116.621 15.5393 115.945 15.262 115.078 15.262Z" fill="#333333"/>
<path d="M123.613 7.67H126.967V26H123.613V7.67ZM138.023 12.974C139.549 12.974 140.684 13.4073 141.429 14.274C142.175 15.1407 142.547 16.4493 142.547 18.2V26H139.297V18.382C139.297 17.394 139.107 16.6747 138.725 16.224C138.361 15.7733 137.781 15.548 136.983 15.548C136.047 15.548 135.293 15.8427 134.721 16.432C134.167 17.0213 133.889 17.81 133.889 18.798V26H130.639V13.286H133.811V15.184C134.245 14.4733 134.825 13.9273 135.553 13.546C136.281 13.1647 137.105 12.974 138.023 12.974Z" fill="#FF9A76"/>
<path d="M3.5 8.83334V25.1667C3.5 27.7345 5.593 28.6667 7 28.6667H24.5V26.3333H7.014C6.475 26.3193 5.83333 26.107 5.83333 25.1667C5.83333 24.2263 6.475 24.014 7.014 24H24.5V7.66668C24.5 6.37984 23.4535 5.33334 22.1667 5.33334H7C5.593 5.33334 3.5 6.26551 3.5 8.83334Z" fill="#333333"/>
</svg>
